<svg xmlns="http://www.w3.org/2000/svg" viewBox="0 0 33 33" width="200" height="200" shape-rendering="crispEdges"><rect width="33" height="33" fill="#fff"/><path fill="#000" d="M2 2h7v1h-7zM11 2h1v1h-1zM13 2h1v1h-1zM15 2h2v1h-2zM19 2h2v1h-2zM24 2h7v1h-7zM2 3h1v1h-1zM8 3h1v1h-1zM10 3h4v1h-4zM16 3h1v1h-1zM24 3h1v1h-1zM30 3h1v1h-1zM2 4h1v1h-1zM4 4h3v1h-3zM8 4h1v1h-1zM10 4h2v1h-2zM13 4h1v1h-1zM16 4h1v1h-1zM18 4h1v1h-1zM21 4h2v1h-2zM24 4h1v1h-1zM26 4h3v1h-3zM30 4h1v1h-1zM2 5h1v1h-1zM4 5h3v1h-3zM8 5h1v1h-1zM10 5h3v1h-3zM15 5h1v1h-1zM17 5h3v1h-3zM24 5h1v1h-1zM26 5h3v1h-3zM30 5h1v1h-1zM2 6h1v1h-1zM4 6h3v1h-3zM8 6h1v1h-1zM11 6h1v1h-1zM13 6h1v1h-1zM16 6h1v1h-1zM18 6h1v1h-1zM21 6h2v1h-2zM24 6h1v1h-1zM26 6h3v1h-3zM30 6h1v1h-1zM2 7h1v1h-1zM8 7h1v1h-1zM15 7h1v1h-1zM18 7h3v1h-3zM24 7h1v1h-1zM30 7h1v1h-1zM2 8h7v1h-7zM10 8h1v1h-1zM12 8h1v1h-1zM14 8h1v1h-1zM16 8h1v1h-1zM18 8h1v1h-1zM20 8h1v1h-1zM22 8h1v1h-1zM24 8h7v1h-7zM10 9h4v1h-4zM18 9h1v1h-1zM21 9h2v1h-2zM2 10h1v1h-1zM8 10h1v1h-1zM10 10h1v1h-1zM15 10h3v1h-3zM19 10h1v1h-1zM21 10h1v1h-1zM23 10h2v1h-2zM27 10h3v1h-3zM2 11h2v1h-2zM5 11h2v1h-2zM9 11h1v1h-1zM12 11h3v1h-3zM16 11h2v1h-2zM21 11h1v1h-1zM23 11h1v1h-1zM25 11h2v1h-2zM28 11h2v1h-2zM3 12h4v1h-4zM8 12h2v1h-2zM14 12h1v1h-1zM17 12h2v1h-2zM22 12h1v1h-1zM26 12h1v1h-1zM3 13h1v1h-1zM10 13h1v1h-1zM14 13h1v1h-1zM16 13h3v1h-3zM20 13h1v1h-1zM23 13h1v1h-1zM27 13h1v1h-1zM3 14h3v1h-3zM8 14h1v1h-1zM13 14h1v1h-1zM17 14h2v1h-2zM22 14h1v1h-1zM24 14h2v1h-2zM30 14h1v1h-1zM5 15h1v1h-1zM7 15h1v1h-1zM10 15h1v1h-1zM14 15h1v1h-1zM16 15h3v1h-3zM20 15h3v1h-3zM24 15h3v1h-3zM29 15h2v1h-2zM3 16h1v1h-1zM5 16h2v1h-2zM8 16h1v1h-1zM10 16h1v1h-1zM13 16h2v1h-2zM16 16h5v1h-5zM22 16h2v1h-2zM26 16h3v1h-3zM3 17h4v1h-4zM9 17h4v1h-4zM14 17h1v1h-1zM16 17h1v1h-1zM20 17h2v1h-2zM25 17h2v1h-2zM28 17h1v1h-1zM30 17h1v1h-1zM3 18h1v1h-1zM6 18h1v1h-1zM8 18h1v1h-1zM10 18h1v1h-1zM12 18h1v1h-1zM14 18h3v1h-3zM19 18h1v1h-1zM21 18h1v1h-1zM23 18h1v1h-1zM25 18h1v1h-1zM27 18h2v1h-2zM2 19h2v1h-2zM7 19h1v1h-1zM10 19h3v1h-3zM14 19h2v1h-2zM17 19h1v1h-1zM19 19h3v1h-3zM24 19h3v1h-3zM28 19h3v1h-3zM2 20h2v1h-2zM5 20h4v1h-4zM11 20h3v1h-3zM17 20h3v1h-3zM21 20h1v1h-1zM26 20h2v1h-2zM30 20h1v1h-1zM2 21h1v1h-1zM4 21h2v1h-2zM9 21h2v1h-2zM14 21h1v1h-1zM16 21h2v1h-2zM20 21h1v1h-1zM22 21h1v1h-1zM24 21h1v1h-1zM2 22h1v1h-1zM4 22h1v1h-1zM7 22h2v1h-2zM10 22h2v1h-2zM13 22h7v1h-7zM21 22h6v1h-6zM28 22h3v1h-3zM10 23h4v1h-4zM17 23h1v1h-1zM19 23h2v1h-2zM22 23h1v1h-1zM26 23h2v1h-2zM2 24h7v1h-7zM13 24h1v1h-1zM15 24h1v1h-1zM17 24h3v1h-3zM21 24h2v1h-2zM24 24h1v1h-1zM26 24h3v1h-3zM2 25h1v1h-1zM8 25h1v1h-1zM11 25h1v1h-1zM13 25h1v1h-1zM21 25h2v1h-2zM26 25h1v1h-1zM30 25h1v1h-1zM2 26h1v1h-1zM4 26h3v1h-3zM8 26h1v1h-1zM15 26h3v1h-3zM21 26h7v1h-7zM29 26h1v1h-1zM2 27h1v1h-1zM4 27h3v1h-3zM8 27h1v1h-1zM12 27h1v1h-1zM15 27h1v1h-1zM17 27h2v1h-2zM20 27h4v1h-4zM27 27h2v1h-2zM30 27h1v1h-1zM2 28h1v1h-1zM4 28h3v1h-3zM8 28h1v1h-1zM11 28h1v1h-1zM14 28h1v1h-1zM17 28h3v1h-3zM21 28h9v1h-9zM2 29h1v1h-1zM8 29h1v1h-1zM12 29h1v1h-1zM16 29h2v1h-2zM24 29h2v1h-2zM27 29h2v1h-2zM30 29h1v1h-1zM2 30h7v1h-7zM10 30h4v1h-4zM15 30h2v1h-2zM19 30h3v1h-3zM24 30h3v1h-3zM28 30h1v1h-1z"/></svg>